<svg version="1" xmlns="http://www.w3.org/2000/svg" width="1370.667" height="1370.667" viewBox="0 0 1028.000000 1028.000000"><path d="M0 514v514h1028V0H0v514zm296.4-99c.3 74 .6 167.9.6 208.7V698h4.8c6.6 0 16.7-2.6 22.4-5.7 5.8-3.2 10.7-7.4 41.5-35.8 13.1-12.1 28-25.8 33.2-30.5 16.2-14.8 25.4-28.9 28.8-44.4 1.4-6.6 1.5-9 .5-15.7-1.6-11.1-5.2-18-13.6-26.5-11.4-11.4-28-18.6-50.8-21.9l-3.8-.6V501h221v15.8l-6.7 2.3c-22.4 7.3-52.9 23.6-72.8 38.7-24.1 18.4-70.1 61-69.2 64.2.7 2.8 145.8 270.2 150.4 277.2 4.6 7 8.8 11.2 15.4 15.3l3.9 2.5v18l-112.2-.2-112.3-.3-.3-8.6-.3-8.6 6.5-.6c14.8-1.4 21-9.3 17.5-22.2-1.5-5.4-77.4-162.1-80.6-166.3-5.6-7.5-11.9-11.6-19.4-12.8l-4.2-.7.6 80.9c.6 63.7 1 82.4 2.1 87.9 3.6 17.9 10 26.7 22 30.4 3.7 1.1 10.3 2.4 14.6 2.7l8 .7V935l-125.2-.2-125.3-.3-.3-8.6-.3-8.6 8-.7c22-1.8 31.6-9.7 37.3-30.4 2.1-7.7 2.1-8.1 3.1-255.7 1-260.8 1-261.2-3.4-282.8-5.5-27.5-15.3-37.5-39.2-40.2l-5.8-.7.3-8.1.3-8.2h60c38.9-.1 65.4-.5 75.5-1.3 18.4-1.5 43.8-4.6 57-7.1 5.2-.9 9.6-1.7 9.6-1.7.1.1.4 60.6.8 134.6zm584.1 373c26.3 8.3 46 28.9 52.2 54.8 2.3 9.7 2 25.7-.6 35.6-8.9 33.5-37.6 55.7-72.1 55.8-13.1.1-21.4-1.9-33.7-7.9-15.6-7.6-29.2-22.1-35.7-38.2-17.5-43.2 8.1-91.3 53.9-101.5 9.8-2.2 26.7-1.5 36 1.4z"/></svg>