<?xml version="1.0" standalone="no"?>
<!DOCTYPE svg PUBLIC "-//W3C//DTD SVG 20010904//EN"
 "http://www.w3.org/TR/2001/REC-SVG-20010904/DTD/svg10.dtd">
<svg version="1.0" xmlns="http://www.w3.org/2000/svg"
 width="700.000000pt" height="700.000000pt" viewBox="0 0 700.000000 700.000000"
 preserveAspectRatio="xMidYMid meet">
<metadata>
Created by potrace 1.11, written by Peter Selinger 2001-2013
</metadata>
<g transform="translate(0.000000,700.000000) scale(0.100000,-0.100000)"
fill="#000000" stroke="none">
<path d="M1135 6984 c-498 -87 -910 -444 -1069 -925 -70 -213 -66 -46 -66
-2559 0 -2513 -4 -2346 66 -2558 138 -419 457 -738 877 -877 210 -69 46 -65
2557 -65 2511 0 2347 -4 2557 65 488 162 841 571 928 1079 13 78 15 369 15
2356 0 2513 4 2346 -66 2558 -138 417 -459 738 -876 876 -212 70 -44 66 -2567
65 -1904 -1 -2289 -3 -2356 -15z m2490 -1472 c28 -10 379 -206 780 -437 798
-460 817 -472 873 -592 l27 -58 0 -925 0 -925 -29 -60 c-59 -119 -75 -130
-876 -592 -404 -233 -757 -430 -784 -438 -63 -19 -169 -19 -232 0 -27 8 -380
205 -784 438 -801 462 -817 473 -876 592 l-29 60 0 925 0 925 33 67 c21 43 51
83 85 114 61 54 1495 886 1567 909 64 19 184 18 245 -3z"/>
<path d="M3365 4126 c-82 -19 -165 -57 -240 -111 -267 -190 -342 -556 -173
-843 42 -72 147 -177 220 -220 31 -18 89 -45 130 -60 64 -23 88 -26 198 -26
110 0 134 3 198 26 104 37 176 83 252 158 199 200 245 487 118 739 -74 147
-207 261 -370 318 -90 31 -241 40 -333 19z"/>
</g>
</svg>
