<svg width="55" height="55" viewBox="0 0 55 55" fill="none" xmlns="http://www.w3.org/2000/svg">
<rect width="55" height="55" fill="white"/>
<rect width="55" height="55" fill="white"/>
<circle cx="41.8889" cy="38.1111" r="3.11111" fill="#F24C4C"/>
<path d="M12.012 41.2222H18.4927H20.433V40.4902C19.1139 40.4926 18.5704 40.0968 18.4927 38.3672L18.4738 32.0688C18.5793 32.0881 18.6655 32.0973 18.7508 32.1232C19.1632 32.2487 19.3718 32.4764 19.601 32.8888L22.7404 39.3662C22.795 39.5302 22.8669 39.8024 22.8357 40.0211C22.6289 40.3776 22.4198 40.4898 21.8179 40.4925V41.2222H31.1728V40.4902C30.9455 40.3659 30.7387 40.2377 30.5013 39.9622C30.3949 39.8324 30.3001 39.658 30.1644 39.4591L24.0579 28.1777C24.9991 27.2082 25.5711 26.6878 26.648 25.8024C27.2157 25.3481 27.699 25.0392 28.1998 24.7503C28.7883 24.4107 29.4052 24.113 30.2765 23.8471V23.184H21.0976V23.8514C21.1767 23.8767 21.4013 23.8336 22.1368 24.0527C22.9482 24.3344 23.5592 24.7377 23.8511 25.4854C23.9217 25.6662 23.9319 25.8909 23.9719 26.1131C23.9084 26.9172 23.6713 27.3424 23.025 28.0903L20.3693 30.5158C19.7641 31.1406 19.3688 31.3738 18.4738 31.3951L18.4278 14.4102V14C17.1176 14.2481 16.2506 14.343 14.723 14.4102C13.1954 14.4774 12.0045 14.4102 12.0045 14.4102L10 14.4125V15.1173C11.59 15.1601 11.817 16.0533 12.0045 17.9003L11.9983 38.1356C11.8969 39.9632 11.4607 40.4698 10.0023 40.4925V41.2222H12.012Z" fill="#F24C4C"/>
</svg>
