<?xml version="1.0" standalone="no"?>
<!DOCTYPE svg PUBLIC "-//W3C//DTD SVG 20010904//EN"
 "http://www.w3.org/TR/2001/REC-SVG-20010904/DTD/svg10.dtd">
<svg version="1.0" xmlns="http://www.w3.org/2000/svg"
 width="700.000000pt" height="700.000000pt" viewBox="0 0 700.000000 700.000000"
 preserveAspectRatio="xMidYMid meet">
<metadata>
Created by potrace 1.11, written by Peter Selinger 2001-2013
</metadata>
<g transform="translate(0.000000,700.000000) scale(0.100000,-0.100000)"
fill="#000000" stroke="none">
<path d="M0 3500 l0 -3500 3500 0 3500 0 0 3500 0 3500 -3500 0 -3500 0 0
-3500z m2020 170 l0 -1420 43 0 c111 0 159 32 463 314 302 278 344 328 379
450 31 106 9 213 -62 296 -61 73 -213 145 -345 164 l-48 7 0 55 0 54 750 0
751 0 -3 -56 -3 -56 -80 -29 c-255 -93 -515 -274 -818 -568 -74 -72 -106 -110
-102 -120 8 -22 949 -1761 993 -1836 40 -69 95 -130 135 -151 25 -13 27 -19
27 -74 l0 -60 -765 0 -765 0 0 60 0 60 43 0 c47 0 99 27 117 60 7 13 9 38 5
63 -6 37 -290 637 -485 1027 -83 164 -136 220 -211 220 -18 0 -19 -10 -18
-292 0 -161 4 -423 8 -583 7 -266 9 -295 30 -347 38 -98 118 -148 235 -148
l46 0 0 -60 0 -60 -850 0 -850 0 0 60 0 60 43 0 c63 0 142 26 181 60 42 37 72
106 86 196 7 47 10 623 7 1824 -3 1928 1 1806 -61 1929 -41 80 -91 114 -198
133 l-58 10 0 53 0 53 463 5 c463 5 636 16 812 51 39 8 78 15 88 15 16 1 17
-73 17 -1419z m3966 -2034 c220 -58 374 -261 374 -491 0 -380 -400 -622 -742
-449 -69 35 -170 134 -205 201 -80 151 -85 330 -13 473 65 130 183 228 318
265 63 18 205 18 268 1z"/>
</g>
</svg>
