<?xml version="1.0" standalone="no"?>
<!DOCTYPE svg PUBLIC "-//W3C//DTD SVG 20010904//EN"
 "http://www.w3.org/TR/2001/REC-SVG-20010904/DTD/svg10.dtd">
<svg version="1.0" xmlns="http://www.w3.org/2000/svg"
 width="700.000000pt" height="700.000000pt" viewBox="0 0 700.000000 700.000000"
 preserveAspectRatio="xMidYMid meet">
<metadata>
Created by potrace 1.11, written by Peter Selinger 2001-2013
</metadata>
<g transform="translate(0.000000,700.000000) scale(0.100000,-0.100000)"
fill="#000000" stroke="none">
<path d="M0 3500 l0 -3500 3500 0 3500 0 0 3500 0 3500 -3500 0 -3500 0 0
-3500z m2020 170 l0 -1420 43 0 c111 0 159 32 463 314 302 278 344 328 379
450 30 103 7 215 -61 295 -62 74 -213 146 -346 165 l-48 7 0 55 0 54 750 0
751 0 -3 -56 -3 -56 -80 -29 c-252 -92 -517 -276 -814 -565 l-115 -111 483
-894 c266 -492 500 -921 519 -954 40 -69 95 -130 135 -151 25 -13 27 -19 27
-74 l0 -60 -765 0 -765 0 0 60 0 60 40 0 c84 0 136 52 125 123 -10 59 -531
1132 -573 1178 -35 40 -87 69 -121 69 -21 0 -21 -2 -20 -277 0 -153 4 -415 8
-583 7 -278 10 -310 29 -361 37 -93 103 -139 214 -147 l68 -5 0 -58 0 -59
-850 0 -850 0 0 60 0 60 43 0 c63 0 142 26 181 60 41 36 71 105 85 191 7 43
11 635 11 1779 0 1873 1 1833 -57 1962 -27 60 -75 112 -122 129 -14 6 -52 15
-83 21 l-58 10 0 53 0 53 463 5 c457 5 572 12 777 47 58 10 113 18 123 19 16
1 17 -73 17 -1419z m3966 -2034 c126 -33 253 -133 312 -244 44 -83 62 -155 62
-247 0 -132 -40 -239 -127 -335 -157 -175 -404 -221 -615 -114 -69 35 -170
134 -206 201 -51 97 -65 163 -60 278 4 88 9 111 37 171 18 38 50 92 73 121 48
63 151 134 228 158 30 9 60 18 65 20 28 9 187 3 231 -9z"/>
</g>
</svg>
