<svg width="55" height="55" viewBox="0 0 55 55" fill="none" xmlns="http://www.w3.org/2000/svg">
<rect width="55" height="55" fill="black"/>
<circle cx="46" cy="46" r="4" fill="white"/>
<path d="M7.58692 50H15.9192H18.4139V49.0589C16.7179 49.062 16.019 48.5531 15.9192 46.3293L15.8949 38.2314C16.0305 38.2561 16.1414 38.2679 16.251 38.3013C16.7812 38.4626 17.0495 38.7553 17.3441 39.2857L21.3805 47.6136C21.4507 47.8246 21.5432 48.1745 21.503 48.4557C21.2372 48.914 20.9683 49.0583 20.1945 49.0618V50H32.2222V49.0589C31.93 48.899 31.664 48.7342 31.3588 48.38C31.222 48.213 31.1002 47.9889 30.9256 47.7331L23.0745 33.2284C24.2845 31.982 25.0199 31.3129 26.4046 30.1745C27.1345 29.5905 27.7559 29.1932 28.3997 28.8218C29.1564 28.3852 29.9496 28.0024 31.0698 27.6605V26.808H19.2683V27.6661C19.3701 27.6986 19.6588 27.6432 20.6044 27.9249C21.6477 28.2871 22.4333 28.8056 22.8086 29.7669C22.8993 29.9994 22.9124 30.2883 22.9639 30.574C22.8823 31.6078 22.5774 32.1546 21.7464 33.1161L18.3319 36.2347C17.5538 37.0379 17.0455 37.3377 15.8949 37.3651L15.8357 15.5274V15C14.1512 15.319 13.0365 15.441 11.0725 15.5274C9.10841 15.6137 7.57725 15.5274 7.57725 15.5274L5 15.5303V16.4365C7.04432 16.4916 7.33615 17.64 7.57725 20.0147L7.56926 46.0315C7.43888 48.3813 6.87805 49.0326 5.00299 49.0618V50H7.58692Z" fill="white"/>
</svg>
