<svg width="24" height="24" viewBox="0 0 24 24" fill="none" xmlns="http://www.w3.org/2000/svg">
<rect width="24" height="24" fill="#F24C4C"/>
<circle cx="20.0727" cy="20.0727" r="1.74545" fill="white"/>
<path d="M3.31065 21.8182H6.94654H8.03516V21.4075C7.29507 21.4089 6.99013 21.1868 6.94654 20.2164L6.93594 16.6828C6.99512 16.6936 7.0435 16.6987 7.09133 16.7133C7.32271 16.7837 7.43977 16.9114 7.56833 17.1428L9.32969 20.7769C9.36031 20.8689 9.40067 21.0216 9.38314 21.1443C9.26714 21.3443 9.14982 21.4072 8.81214 21.4088V21.8182H14.0606V21.4075C13.9331 21.3377 13.817 21.2658 13.6839 21.1113C13.6241 21.0384 13.571 20.9406 13.4948 20.829L10.0689 14.4997C10.5969 13.9558 10.9178 13.6638 11.522 13.1671C11.8405 12.9122 12.1117 12.7389 12.3926 12.5768C12.7228 12.3863 13.0689 12.2193 13.5577 12.07V11.698H8.40799V12.0725C8.45239 12.0866 8.57838 12.0625 8.99102 12.1854C9.44626 12.3434 9.78906 12.5697 9.95283 12.9892C9.99244 13.0907 9.99814 13.2167 10.0206 13.3414C9.98499 13.7925 9.85196 14.0311 9.48933 14.4507L7.99939 15.8115C7.65986 16.162 7.43805 16.2928 6.93594 16.3048L6.91013 6.77559V6.54546C6.17508 6.68465 5.68867 6.73791 4.83162 6.77559C3.97458 6.81327 3.30644 6.77559 3.30644 6.77559L2.18182 6.77686V7.17228C3.07388 7.19633 3.20123 7.69744 3.30644 8.7337L3.30295 20.0865C3.24606 21.1118 3.00133 21.3961 2.18312 21.4088V21.8182H3.31065Z" fill="white"/>
</svg>
