<svg width="24" height="24" viewBox="0 0 24 24" fill="none" xmlns="http://www.w3.org/2000/svg">
<path d="M12.0013 0.493592C5.37057 0.490911 0 5.8588 0 12.4842C0 17.7234 3.35962 22.177 8.03843 23.8126C8.66853 23.9707 8.572 23.523 8.572 23.2173V21.1393C4.93353 21.5657 4.78606 19.1579 4.54206 18.7557C4.04871 17.9138 2.88236 17.6993 3.23092 17.2971C4.05943 16.8708 4.90403 17.4043 5.88269 18.8495C6.59055 19.8979 7.9714 19.7209 8.67121 19.5467C8.82404 18.9166 9.15116 18.3535 9.60161 17.9165C5.83175 17.2408 4.26053 14.9402 4.26053 12.2054C4.26053 10.8781 4.69758 9.65816 5.55558 8.67413C5.0086 7.05197 5.60652 5.66307 5.68696 5.45661C7.24478 5.31719 8.86426 6.57202 8.99028 6.67123C9.8751 6.43259 10.8859 6.30657 12.0174 6.30657C13.1543 6.30657 14.1678 6.43796 15.0607 6.67927C15.3636 6.44868 16.8652 5.37081 18.313 5.5022C18.3908 5.70865 18.9753 7.06537 18.4605 8.66609C19.3292 9.65279 19.7716 10.8835 19.7716 12.2134C19.7716 14.9537 18.1897 17.2569 14.4091 17.9218C14.7329 18.2403 14.99 18.6201 15.1654 19.039C15.3408 19.4579 15.431 19.9076 15.4307 20.3618V23.3782C15.4521 23.6195 15.4307 23.8581 15.8329 23.8581C20.5814 22.2574 24 17.7717 24 12.4869C24 5.8588 18.6267 0.493592 12.0013 0.493592Z" fill="#F24C4C"/>
</svg>
