<svg width="24" height="25" viewBox="0 0 24 25" fill="none" xmlns="http://www.w3.org/2000/svg">
<path d="M23.04 0.493591H0.96C0.429 0.493591 0 0.922591 0 1.45359V23.5336C0 24.0646 0.429 24.4936 0.96 24.4936H23.04C23.571 24.4936 24 24.0646 24 23.5336V1.45359C24 0.922591 23.571 0.493591 23.04 0.493591ZM20.268 7.49859H18.351C16.848 7.49859 16.557 8.21259 16.557 9.26259V11.5756H20.145L19.677 15.1966H16.557V24.4936H12.816V15.1996H9.687V11.5756H12.816V8.90559C12.816 5.80659 14.709 4.11759 17.475 4.11759C18.801 4.11759 19.938 4.21659 20.271 4.26159V7.49859H20.268Z" fill="#F24C4C"/>
</svg>
