<svg width="24" height="20" viewBox="0 0 24 20" fill="none" xmlns="http://www.w3.org/2000/svg">
<path d="M21.5343 4.85813C21.5502 5.07185 21.5502 5.28435 21.5502 5.49685C21.5502 12 16.6004 19.4936 7.55465 19.4936C4.76776 19.4936 2.17871 18.6863 0 17.2843C0.395685 17.3295 0.776715 17.3454 1.18828 17.3454C3.40239 17.3508 5.55381 16.6104 7.29575 15.2436C6.26919 15.2251 5.27406 14.8864 4.4493 14.2749C3.62455 13.6634 3.01134 12.8096 2.6953 11.8327C2.99939 11.8779 3.3047 11.9084 3.62467 11.9084C4.06554 11.9084 4.50885 11.8473 4.92041 11.7411C3.80634 11.5162 2.80457 10.9123 2.08543 10.0322C1.36629 9.15207 0.974182 8.05005 0.975779 6.9135V6.85243C1.63159 7.21759 2.39243 7.44596 3.19845 7.47649C2.52321 7.02779 1.96953 6.41892 1.58682 5.7042C1.2041 4.98949 1.00425 4.19115 1.00509 3.38042C1.00509 2.46693 1.24812 1.62915 1.67433 0.89884C2.91041 2.41932 4.45207 3.66321 6.19947 4.54996C7.94688 5.43671 9.86106 5.94653 11.818 6.04641C11.7423 5.68003 11.6959 5.30022 11.6959 4.91919C11.6956 4.27311 11.8226 3.63329 12.0697 3.03632C12.3168 2.43935 12.6791 1.89694 13.136 1.44008C13.5928 0.98323 14.1353 0.620897 14.7322 0.373798C15.3292 0.126699 15.969 -0.000320431 16.6151 6.07038e-07C18.0318 6.07038e-07 19.3104 0.593528 20.2092 1.55343C21.3105 1.34046 22.3666 0.938436 23.3308 0.365154C22.9637 1.50191 22.1947 2.46583 21.1679 3.07633C22.1447 2.96493 23.0992 2.70806 24 2.31427C23.3272 3.29505 22.4936 4.15511 21.5343 4.85813Z" fill="#F24C4C"/>
</svg>
